<svg id="Layer_1" data-name="Layer 1" xmlns="http://www.w3.org/2000/svg" xmlns:xlink="http://www.w3.org/1999/xlink" viewBox="0 0 1443.47 907.93"><defs><style>.cls-1,.cls-19,.cls-2,.cls-27,.cls-30{fill:#fff;}.cls-1,.cls-10,.cls-14,.cls-16,.cls-17,.cls-19,.cls-22,.cls-24,.cls-27,.cls-28,.cls-29,.cls-3,.cls-30,.cls-5,.cls-9{fill-rule:evenodd;}.cls-28,.cls-3{fill:#e2d7f4;}.cls-10,.cls-12,.cls-14,.cls-16,.cls-17,.cls-19,.cls-21,.cls-22,.cls-24,.cls-26,.cls-27,.cls-28,.cls-29,.cls-3,.cls-30,.cls-31,.cls-32,.cls-33,.cls-35,.cls-36,.cls-37,.cls-38,.cls-39,.cls-40,.cls-5,.cls-7,.cls-9{stroke:#c30f75;}.cls-10,.cls-12,.cls-14,.cls-16,.cls-17,.cls-19,.cls-21,.cls-22,.cls-24,.cls-26,.cls-28,.cls-3,.cls-30,.cls-31,.cls-32,.cls-33,.cls-36,.cls-37,.cls-38,.cls-39,.cls-5,.cls-7,.cls-9{stroke-miterlimit:10;}.cls-3{opacity:0.84;}.cls-3,.cls-30,.cls-31,.cls-32,.cls-33,.cls-36,.cls-37,.cls-38,.cls-39{isolation:isolate;}.cls-4{mask:url(#mask);}.cls-5{fill:#d0c6ac;}.cls-6{mask:url(#mask-2-2);}.cls-7{fill:#ffdbb4;}.cls-8{mask:url(#mask-3);}.cls-9{fill-opacity:0.1;}.cls-10{fill:#b7c1db;}.cls-11{mask:url(#mask-4-3);}.cls-12{fill:#293347;}.cls-13{mask:url(#mask-5);}.cls-14{fill:#f4f4f4;}.cls-15{mask:url(#mask-6-3);}.cls-16{fill-opacity:0.16;}.cls-17{fill-opacity:0.7;}.cls-18{mask:url(#mask-7);}.cls-20{mask:url(#mask-8-2);}.cls-21{fill:#ff4f6d;}.cls-22{fill-opacity:0.6;}.cls-23{mask:url(#mask-9);}.cls-24{fill:#1f3140;}.cls-25{mask:url(#mask-10-2);}.cls-26{fill:#4a312c;}.cls-27{stroke-width:11.4px;}.cls-29,.cls-31,.cls-32,.cls-33,.cls-36,.cls-37,.cls-38,.cls-39,.cls-40{fill:#c30f75;}.cls-29{stroke-width:22.8px;}.cls-30,.cls-34{opacity:0.7;}.cls-31{opacity:0.25;}.cls-32{opacity:0.45;}.cls-33{opacity:0.49;}.cls-35{fill:none;}.cls-35,.cls-40{stroke-linecap:round;stroke-width:12px;}.cls-36{opacity:0.21;}.cls-37{opacity:0.15;}.cls-38{opacity:0.3;}.cls-39{opacity:0.16;}</style><mask id="mask" x="368.55" y="12.35" width="704.91" height="745.73" maskUnits="userSpaceOnUse"><g transform="translate(-3.7 -7.65)"><g id="mask-2"><path id="path-1" class="cls-1" d="M372.25,446.13V20h704.91V446.13h-32c0,176.51-143.46,319.6-320.42,319.6S404.29,622.64,404.29,446.13h-32Z"/></g></g></mask><mask id="mask-2-2" x="368.05" y="101.76" width="705.94" height="650.94" maskUnits="userSpaceOnUse"><g transform="translate(-3.7 -7.65)"><g id="mask-4"><path id="path-3" class="cls-1" d="M724.7,109.91A149.53,149.53,0,0,1,874.23,259.43v16a32.07,32.07,0,0,1,26.7,31.6V344.2a32,32,0,0,1-27.56,31.73A149.6,149.6,0,0,1,788.79,495v49H807A184.67,184.67,0,0,1,991.71,728.71v31h-534v-31c0-102,82.69-184.68,184.68-184.68h18.25V495A149.59,149.59,0,0,1,576,375.93a32,32,0,0,1-27.55-31.73V307.07a32.06,32.06,0,0,1,26.7-31.6v-16A149.52,149.52,0,0,1,724.7,109.91Z"/></g></g></mask><mask id="mask-3" x="453.99" y="102.26" width="534.02" height="649.85" maskUnits="userSpaceOnUse"><g transform="translate(-3.7 -7.65)"><g id="mask-4-2" data-name="mask-4"><path id="path-3-2" data-name="path-3" class="cls-1" d="M724.7,109.91A149.53,149.53,0,0,1,874.23,259.43v16a32.07,32.07,0,0,1,26.7,31.6V344.2a32,32,0,0,1-27.56,31.73A149.6,149.6,0,0,1,788.79,495v49H807A184.67,184.67,0,0,1,991.71,728.71v31h-534v-31c0-102,82.69-184.68,184.68-184.68h18.25V495A149.59,149.59,0,0,1,576,375.93a32,32,0,0,1-27.55-31.73V307.07a32.06,32.06,0,0,1,26.7-31.6v-16A149.52,149.52,0,0,1,724.7,109.91Z"/></g></g></mask><mask id="mask-4-3" x="368.05" y="458.64" width="706.05" height="294.16" maskUnits="userSpaceOnUse"><g transform="translate(-3.7 -7.65)"><g id="mask-6"><path id="path-5" class="cls-1" d="M788.94,501.63c46.78,5.22,83.06,19.28,85.36,55A184.74,184.74,0,0,1,991.94,728.76V760H457.72V728.76A184.74,184.74,0,0,1,575.37,556.62c2.29-35.71,38.57-49.77,85.35-55v50.3a64.11,64.11,0,0,0,128.21,0h0Z"/></g></g></mask><mask id="mask-5" x="454.02" y="493.98" width="534.22" height="258.82" maskUnits="userSpaceOnUse"><g transform="translate(-3.7 -7.65)"><g id="mask-6-2" data-name="mask-6"><path id="path-5-2" data-name="path-5" class="cls-1" d="M788.94,501.63c46.78,5.22,83.06,19.28,85.36,55A184.74,184.74,0,0,1,991.94,728.76V760H457.72V728.76A184.74,184.74,0,0,1,575.37,556.62c2.29-35.71,38.57-49.77,85.35-55v50.3a64.11,64.11,0,0,0,128.21,0h0Z"/></g></g></mask><mask id="mask-6-3" x="454.02" y="492.56" width="534.22" height="259.74" maskUnits="userSpaceOnUse"><g transform="translate(-3.7 -7.65)"><g id="mask-6-4" data-name="mask-6"><path id="path-5-3" data-name="path-5" class="cls-1" d="M788.94,501.63c46.78,5.22,83.06,19.28,85.36,55A184.74,184.74,0,0,1,991.94,728.76V760H457.72V728.76A184.74,184.74,0,0,1,575.37,556.62c2.29-35.71,38.57-49.77,85.35-55v50.3a64.11,64.11,0,0,0,128.21,0h0Z"/></g></g></mask><mask id="mask-7" x="670.45" y="368.07" width="100.77" height="80.17" maskUnits="userSpaceOnUse"><g transform="translate(-3.7 -7.65)"><g id="mask-8"><path id="path-7" class="cls-1" d="M674.17,411.09a50.7,50.7,0,0,0,100.74-.24c.22-2-2.07-5.41-4.93-5.41H679.42C676.54,405.44,673.89,408.57,674.17,411.09Z"/></g></g></mask><mask id="mask-8-2" x="670.45" y="397.79" width="100.77" height="88.14" maskUnits="userSpaceOnUse"><g transform="translate(-3.7 -7.65)"><g id="mask-8-3" data-name="mask-8"><path id="path-7-2" data-name="path-7" class="cls-1" d="M674.17,411.09a50.7,50.7,0,0,0,100.74-.24c.22-2-2.07-5.41-4.93-5.41H679.42C676.54,405.44,673.89,408.57,674.17,411.09Z"/></g></g></mask><mask id="mask-9" x="368.55" y="6.38" width="704.91" height="745.73" maskUnits="userSpaceOnUse"><g transform="translate(-3.7 -7.65)"><g id="mask-10"><rect id="path-9" class="cls-2" x="372.25" y="14.03" width="704.91" height="745.73"/></g></g></mask><mask id="mask-10-2" x="368.05" y="5.88" width="706.69" height="746.94" maskUnits="userSpaceOnUse"><g transform="translate(-3.7 -7.65)"><g id="mask-12"><path id="path-11" class="cls-1" d="M850.63,120.42c-7.37-7.52-15.92-13.9-24.24-20.3-1.84-1.41-3.71-2.78-5.5-4.25-.41-.33-4.59-3.32-5.09-4.42-1.21-2.64-.51-.58-.34-3.74.21-4,8.37-15.27,2.28-17.85-2.68-1.14-7.46,1.89-10,2.88a158.58,158.58,0,0,1-15.31,5.07c2.49-5,7.24-14.86-1.68-12.2-7,2.06-13.42,7.37-20.4,9.87,2.31-3.78,11.54-15.49,3.2-16.14-2.6-.21-10.16,4.66-13,5.69a148.72,148.72,0,0,1-25.72,6.7C705,77.11,670,75.58,642.31,89.16,621,99.64,599.93,115.89,587.6,136.58c-11.87,19.95-16.31,41.78-18.8,64.64a324.68,324.68,0,0,0-1.12,50.95c.28,5.52.9,31,8.93,23.25,4-3.84,4-19.33,5-24.58,2-10.43,3.94-20.91,7.28-31,5.89-17.8,12.84-26.1,27.52-38.36,9.41-7.87,16-18.5,25-26.43,4.05-3.57,1-3.2,7.47-2.73,4.37.31,8.77.43,13.15.55,10.13.26,20.29.19,30.43.23,20.41.07,40.74.36,61.14-.71,9.06-.47,18.15-.73,27.2-1.56,5-.47,14-3.7,18.17-1.23,3.8,2.26,7.75,9.63,10.48,12.65,6.46,7.14,14.16,12.59,21.7,18.45,15.74,12.2,23.69,16.87,28.47,35.94S863.07,253.26,869,272c1,3.29,3.78,9,7.16,3.88.63-.95.47-6.13.47-9.12,0-12,3-21.08,3-33.2C879.46,196.65,878.26,148.59,850.63,120.42Z"/></g></g></mask></defs><g id="Website"><g id="Group-34"><g id="Group-30"><path id="Combined-Shape" class="cls-3" d="M1174.53,146.85a53.18,53.18,0,0,1,53.18,52.3V200a53.19,53.19,0,0,1-53.19,53.19H1125.8a53.18,53.18,0,1,0,0,106.36h41.65v.12a53.18,53.18,0,0,1,49.63,52.18v.88a53.19,53.19,0,0,1-49.63,53.07V466h69.13a53.18,53.18,0,0,1,53.18,52.3v.88a53.18,53.18,0,0,1-53.19,53.18h-85.1a53.19,53.19,0,0,0,0,106.37h90.42a53.18,53.18,0,0,1,53.18,52.3v.88A53.18,53.18,0,0,1,1241.9,785H1100.08a53.19,53.19,0,0,1,53.18,52.31v.88a53.19,53.19,0,0,1-53.19,53.18H288.16a53.19,53.19,0,1,1,0-106.37h76.23a53.18,53.18,0,0,0,53.18-53.18h0V731a53.17,53.17,0,0,0-53.17-52.3h-156a53.19,53.19,0,1,1,0-106.37H253.6a53.18,53.18,0,1,1,0-106.36H439.72a53.18,53.18,0,0,0,53.19-53.19h0v-.88a53.18,53.18,0,0,0-53.18-52.3H311.21a53.18,53.18,0,1,1,0-106.36H242.52a53.19,53.19,0,1,1,0-106.37Z" transform="translate(-3.7 -7.65)"/><g id="Avataaar_Circle" data-name="Avataaar/Circle"><g class="cls-4"><g id="Avataaar"><g id="Body"><path id="path-3-3" data-name="path-3" class="cls-5" d="M724.7,109.91A149.53,149.53,0,0,1,874.23,259.43v16a32.07,32.07,0,0,1,26.7,31.6V344.2a32,32,0,0,1-27.56,31.73A149.6,149.6,0,0,1,788.79,495v49H807A184.67,184.67,0,0,1,991.71,728.71v31h-534v-31c0-102,82.69-184.68,184.68-184.68h18.25V495A149.59,149.59,0,0,1,576,375.93a32,32,0,0,1-27.55-31.73V307.07a32.06,32.06,0,0,1,26.7-31.6v-16A149.52,149.52,0,0,1,724.7,109.91Z" transform="translate(-3.7 -7.65)"/><g class="cls-6"><g id="Skin_-05-Pale" data-name="Skin/ðŸ‘¶ðŸ»-05-Pale"><g id="Color"><rect class="cls-7" x="368.55" y="102.26" width="704.94" height="649.94"/></g></g></g><g class="cls-8"><path id="Neck-Shadow" class="cls-9" d="M575.18,359.88a149.53,149.53,0,0,0,299.05,0h0v21.3a149.53,149.53,0,1,1-299.05,0Z" transform="translate(-3.7 -7.65)"/></g></g><g id="Clothing_Hoodie" data-name="Clothing/Hoodie"><g id="Hoodie"><path id="path-5-4" data-name="path-5" class="cls-10" d="M788.94,501.63c46.78,5.22,83.06,19.28,85.36,55A184.74,184.74,0,0,1,991.94,728.76V760H457.72V728.76A184.74,184.74,0,0,1,575.37,556.62c2.29-35.71,38.57-49.77,85.35-55v50.3a64.11,64.11,0,0,0,128.21,0h0Z" transform="translate(-3.7 -7.65)"/></g><g class="cls-11"><g id="Color_Palette_Slate" data-name="Color/Palette/Slate"><rect id="_Color" data-name="ðŸ–Color" class="cls-12" x="368.55" y="459.14" width="705.05" height="293.16"/></g></g><g class="cls-13"><path id="Straps" class="cls-14" d="M644.7,631.33V760H626V621.76A172.62,172.62,0,0,0,644.7,631.33Zm179-9.57V729.28a9.35,9.35,0,0,1-18.7,0V631.33A173.38,173.38,0,0,0,823.66,621.76Z" transform="translate(-3.7 -7.65)"/></g><g class="cls-15"><path id="Shadow" class="cls-16" d="M834.45,500.7c40.2,7.59,68,22.7,68,52.19,0,52.54-88.25,95.12-177.63,95.12S547.2,605.43,547.2,552.89c0-29.49,27.81-44.6,68-52.19-24.26,8.93-40,23.94-40,48.91,0,54.35,74.31,98.4,149.58,98.4s149.58-44,149.58-98.4c0-24.45-15-39.35-38.46-48.34Z" transform="translate(-3.7 -7.65)"/></g></g><g id="Face"><g id="Mouth_Smile" data-name="Mouth/Smile"><g id="Mouth"><path id="path-7-3" data-name="path-7" class="cls-17" d="M674.17,411.09a50.7,50.7,0,0,0,100.74-.24c.22-2-2.07-5.41-4.93-5.41H679.42C676.54,405.44,673.89,408.57,674.17,411.09Z" transform="translate(-3.7 -7.65)"/></g><g class="cls-18"><path id="Teeth" class="cls-19" d="M697.35,376.22h57a12.83,12.83,0,0,1,12.83,12.83v16.84a12.84,12.84,0,0,1-12.83,12.83h-57a12.84,12.84,0,0,1-12.83-12.83V389.05A12.83,12.83,0,0,1,697.35,376.22Z" transform="translate(-3.7 -7.65)"/></g><g class="cls-20"><g id="Tongue"><ellipse class="cls-21" cx="707.49" cy="456.21" rx="29.34" ry="29.21"/><ellipse class="cls-21" cx="734.16" cy="456.21" rx="29.34" ry="29.21"/></g></g></g><g id="Nose_Default" data-name="Nose/Default"><path id="Nose" class="cls-16" d="M692.69,360.13c0,11.7,14.35,21.18,32.06,21.18h0c17.71,0,32.06-9.48,32.06-21.18" transform="translate(-3.7 -7.65)"/></g><g id="Eyes_Happy-_" data-name="Eyes/Happy-ðŸ˜"><path id="Squint" class="cls-22" d="M618.36,313.34c4.93-10.09,16-17.12,29-17.12s23.95,7,28.91,17c1.47,3-.63,5.42-2.74,3.62-6.55-5.6-15.85-9.1-26.17-9.1a40.56,40.56,0,0,0-25.55,8.58C619.39,318.26,616.92,316.29,618.36,313.34Z" transform="translate(-3.7 -7.65)"/><path id="Squint-2" data-name="Squint" class="cls-22" d="M773.35,313.34c4.93-10.09,16-17.12,29-17.12s24,7,28.91,17c1.47,3-.62,5.42-2.74,3.62-6.55-5.6-15.85-9.1-26.17-9.1a40.56,40.56,0,0,0-25.55,8.58C774.38,318.26,771.91,316.29,773.35,313.34Z" transform="translate(-3.7 -7.65)"/></g><g id="Eyebrow_Natural_Default-Natural" data-name="Eyebrow/Natural/Default-Natural"><path id="Eyebrow" class="cls-22" d="M646.12,248.7c-15.52.71-40.61,11.88-40,27.39a.67.67,0,0,0,1.14.34c7.36-7.84,59.63-15.76,78-11.56,1.69.38,3-1.26,1.9-2.45-9.14-10.19-27.22-14.37-41.12-13.72" transform="translate(-3.7 -7.65)"/><path id="Eyebrow-2" data-name="Eyebrow" class="cls-22" d="M806.2,248.7c15.52.71,40.6,11.88,40,27.39a.67.67,0,0,1-1.14.34c-7.37-7.84-59.64-15.76-78-11.56-1.68.38-3-1.26-1.89-2.45,9.14-10.19,27.22-14.37,41.12-13.72" transform="translate(-3.7 -7.65)"/></g></g><g id="Top"><g class="cls-23"><g id="Top_Short-Hair_Short-Flat-Low" data-name="Top/Short-Hair/Short-Flat-Low"><g id="Short-Hair"><path id="path-11-2" data-name="path-11" class="cls-24" d="M850.63,120.42c-7.37-7.52-15.92-13.9-24.24-20.3-1.84-1.41-3.71-2.78-5.5-4.25-.41-.33-4.59-3.32-5.09-4.42-1.21-2.64-.51-.58-.34-3.74.21-4,8.37-15.27,2.28-17.85-2.68-1.14-7.46,1.89-10,2.88a158.58,158.58,0,0,1-15.31,5.07c2.49-5,7.24-14.86-1.68-12.2-7,2.06-13.42,7.37-20.4,9.87,2.31-3.78,11.54-15.49,3.2-16.14-2.6-.21-10.16,4.66-13,5.69a148.72,148.72,0,0,1-25.72,6.7C705,77.11,670,75.58,642.31,89.16,621,99.64,599.93,115.89,587.6,136.58c-11.87,19.95-16.31,41.78-18.8,64.64a324.68,324.68,0,0,0-1.12,50.95c.28,5.52.9,31,8.93,23.25,4-3.84,4-19.33,5-24.58,2-10.43,3.94-20.91,7.28-31,5.89-17.8,12.84-26.1,27.52-38.36,9.41-7.87,16-18.5,25-26.43,4.05-3.57,1-3.2,7.47-2.73,4.37.31,8.77.43,13.15.55,10.13.26,20.29.19,30.43.23,20.41.07,40.74.36,61.14-.71,9.06-.47,18.15-.73,27.2-1.56,5-.47,14-3.7,18.17-1.23,3.8,2.26,7.75,9.63,10.48,12.65,6.46,7.14,14.16,12.59,21.7,18.45,15.74,12.2,23.69,16.87,28.47,35.94S863.07,253.26,869,272c1,3.29,3.78,9,7.16,3.88.63-.95.47-6.13.47-9.12,0-12,3-21.08,3-33.2C879.46,196.65,878.26,148.59,850.63,120.42Z" transform="translate(-3.7 -7.65)"/></g><g class="cls-25"><g id="Color_Hair_Brown-Dark" data-name="Color/Hair/Brown-Dark"><g id="Color-2" data-name="Color"><rect class="cls-26" x="368.55" y="6.38" width="705.69" height="745.94"/></g></g></g></g></g></g></g></g></g><path id="Case" class="cls-27" d="M349.62,444.55a39.9,39.9,0,0,1,39.9-39.9h671.36a39.91,39.91,0,0,1,39.9,39.9V870a39.9,39.9,0,0,1-39.9,39.9H389.52a39.91,39.91,0,0,1-39.9-39.9Z" transform="translate(-3.7 -7.65)"/><path id="apple_logo" data-name="apple logo" class="cls-28" d="M742.27,620.82c4.07-4.88,6.8-11.67,6.05-18.45-5.84.23-12.94,3.88-17.11,8.75-3.75,4.33-7,11.24-6.17,17.87,6.52.5,13.18-3.29,17.23-8.17m30.22,66.26a63.4,63.4,0,0,1-8,16.42c-4.83,7-9.86,14.06-17.78,14.2-7.77.15-10.27-4.58-19.16-4.58s-11.67,4.44-19,4.73c-7.65.3-13.45-7.61-18.34-14.61-10-14.34-17.59-40.53-7.37-58.19a28.47,28.47,0,0,1,24-14.48c7.52-.12,14.59,5,19.18,5s13.18-6.22,22.24-5.3c3.77.17,14.41,1.52,21.24,11.45-.56.36-12.69,7.37-12.56,22,.15,17.48,15.42,23.29,15.6,23.36" transform="translate(-3.7 -7.65)"/><path id="Rectangle-29" class="cls-29" d="M842.15,442.87l10.9,6.44v33.35a8.55,8.55,0,0,0,8.55,8.55h278.7a8.55,8.55,0,0,0,8.55-8.55V403.08a8.55,8.55,0,0,0-8.55-8.55H861.6a8.55,8.55,0,0,0-8.55,8.55v33.35Z" transform="translate(-3.7 -7.65)"/><g id="Group-85"><path id="Rectangle-11" class="cls-30" d="M880.47,456.81h135.41a6,6,0,0,1,6,6h0a6,6,0,0,1-6,6H880.47a6,6,0,0,1-6-6h0A6,6,0,0,1,880.47,456.81Z" transform="translate(-3.7 -7.65)"/><path id="Rectangle-11-2" data-name="Rectangle-11" class="cls-30" d="M1037.78,456.81h69.7a6,6,0,0,1,0,11.95h-69.7a6,6,0,0,1,0-11.95Z" transform="translate(-3.7 -7.65)"/><path id="Rectangle-11-3" data-name="Rectangle-11" class="cls-19" d="M880.47,417h57.75a6,6,0,0,1,6,6h0a6,6,0,0,1-6,6H880.47a6,6,0,0,1-6-6h0A6,6,0,0,1,880.47,417Z" transform="translate(-3.7 -7.65)"/><path id="Rectangle-11-4" data-name="Rectangle-11" class="cls-30" d="M960.13,417h107.52a6,6,0,0,1,6,6h0a6,6,0,0,1-6,6H960.13a6,6,0,0,1-6-6h0A6,6,0,0,1,960.13,417Z" transform="translate(-3.7 -7.65)"/><path id="Rectangle-11-5" data-name="Rectangle-11" class="cls-30" d="M1089.56,417h37.83a6,6,0,0,1,6,6h0a6,6,0,0,1-6,6h-37.83a6,6,0,0,1-6-6h0A6,6,0,0,1,1089.56,417Z" transform="translate(-3.7 -7.65)"/></g><g id="Group-87"><path id="Rectangle-29-2" data-name="Rectangle-29" class="cls-29" d="M383.84,245l-10.9,6.44v33.35a8.55,8.55,0,0,1-8.55,8.55H255a8.55,8.55,0,0,1-8.55-8.55V205.25A8.55,8.55,0,0,1,255,196.7H364.39a8.55,8.55,0,0,1,8.55,8.55V238.6Z" transform="translate(-3.7 -7.65)"/><path id="thumbs-up" class="cls-19" d="M287.58,237.82a3.06,3.06,0,0,1,2.25.93,3,3,0,0,1,.93,2.24v31.74a3.16,3.16,0,0,1-3.18,3.17H277a3.16,3.16,0,0,1-3.17-3.17V241a3.18,3.18,0,0,1,3.17-3.17Zm-5.29,32.79a3.17,3.17,0,0,0,2.25-5.42,3.21,3.21,0,0,0-4.5,0,3.17,3.17,0,0,0,2.25,5.42Zm42.32-51.7a15,15,0,0,1-.8,4.76,34.59,34.59,0,0,1-1.85,3.7,18,18,0,0,0-1.72,4.1H333.6a7.63,7.63,0,0,1,5.62,2.32,7.34,7.34,0,0,1,2.31,5.35,9.11,9.11,0,0,1-.72,3.57,10.4,10.4,0,0,1-1.79,2.91h-.13a11.18,11.18,0,0,1,.79,5.42,9.78,9.78,0,0,1-2,5.16,9.76,9.76,0,0,1,.13,5.29,10.85,10.85,0,0,1-2.25,4.63,7.24,7.24,0,0,1-.92,5.95q-1.73,2.51-6.35,3.3a49.65,49.65,0,0,1-8.6.53h-.39a28.3,28.3,0,0,1-8.73-1.45,65.48,65.48,0,0,1-7.21-2.84q-4.56-2.06-6.81-2.05A1.59,1.59,0,0,1,295,268v-28.3a1.25,1.25,0,0,1,.53-1.06,72.28,72.28,0,0,0,6.48-8.33,42.25,42.25,0,0,1,5.28-6.61,9.26,9.26,0,0,0,2.12-3.57,31.13,31.13,0,0,0,1.19-4.23v-.13a37.67,37.67,0,0,1,1.45-4.63c.89-1.94,1.9-2.91,3-2.91a9.88,9.88,0,0,1,6,1.72Q324.61,212.56,324.61,218.91Z" transform="translate(-3.7 -7.65)"/></g><g id="Group-88"><g id="Group-87-2" data-name="Group-87"><path id="Rectangle-29-3" data-name="Rectangle-29" class="cls-29" d="M446.42,698l-10.9,6.44v33.35a8.55,8.55,0,0,1-8.55,8.55H317.53a8.55,8.55,0,0,1-8.55-8.55V658.16a8.55,8.55,0,0,1,8.55-8.55H427a8.55,8.55,0,0,1,8.55,8.55v33.35Z" transform="translate(-3.7 -7.65)"/></g><path id="life-ring" class="cls-19" d="M373.17,663.1a33.71,33.71,0,0,1,17.38,4.7,35.09,35.09,0,0,1,12.69,12.69,34.48,34.48,0,0,1,0,34.76,35.09,35.09,0,0,1-12.69,12.69,34.5,34.5,0,0,1-34.77,0,35.09,35.09,0,0,1-12.69-12.69,34.55,34.55,0,0,1,0-34.76,35.09,35.09,0,0,1,12.69-12.69A33.72,33.72,0,0,1,373.17,663.1Zm24.39,16.82a34.81,34.81,0,0,0-6.45-6.44l-8.83,9a18.5,18.5,0,0,1,6.31,6.31Zm-24.39,31.41a13.4,13.4,0,1,0-9.54-3.93A13,13,0,0,0,373.17,711.33Zm-17.95-37.85a34.81,34.81,0,0,0-6.45,6.44l9,8.84a18.58,18.58,0,0,1,6.31-6.31Zm-6.45,42.34a34.81,34.81,0,0,0,6.45,6.44l8.83-9a18.58,18.58,0,0,1-6.31-6.31Zm42.34,6.44a34.81,34.81,0,0,0,6.45-6.44l-9-8.84a18.5,18.5,0,0,1-6.31,6.31Z" transform="translate(-3.7 -7.65)"/></g><g id="Group-89"><path id="Rectangle-29-4" data-name="Rectangle-29" class="cls-29" d="M1048.79,797.51l1.09.65a19.94,19.94,0,0,1,9.8,17.17v18.52a12,12,0,0,0,12,12h106a8.55,8.55,0,0,0,8.55-8.55V757.72a8.55,8.55,0,0,0-8.55-8.55H1068.23a8.55,8.55,0,0,0-8.55,8.55v33.35Z" transform="translate(-3.7 -7.65)"/><path id="question-circle" class="cls-19" d="M1153.66,797.93a30.26,30.26,0,0,1-4.22,15.64A31.57,31.57,0,0,1,1138,825a31,31,0,0,1-31.28,0,31.57,31.57,0,0,1-11.42-11.42,31.09,31.09,0,0,1,0-31.28,31.65,31.65,0,0,1,11.42-11.42,31.09,31.09,0,0,1,31.28,0,31.65,31.65,0,0,1,11.42,11.42A30.29,30.29,0,0,1,1153.66,797.93ZM1123.26,777a16.91,16.91,0,0,0-8.7,2.15,17.64,17.64,0,0,0-6.06,5.92,1.3,1.3,0,0,0-.25,1.08,1.62,1.62,0,0,0,.63.94l4.42,3.28a1.2,1.2,0,0,0,1,.32,1.38,1.38,0,0,0,1-.57,23.71,23.71,0,0,1,3.15-3.28,6.78,6.78,0,0,1,4-1.26,7.09,7.09,0,0,1,4,1.2,3.48,3.48,0,0,1,1.83,3,3.1,3.1,0,0,1-1.14,2.4,24.43,24.43,0,0,1-2.9,1.89l-.25.13a18.43,18.43,0,0,0-4.42,3.15,8,8,0,0,0-2.27,5.68v.5a1.54,1.54,0,0,0,1.52,1.52h7.06a1.54,1.54,0,0,0,1.52-1.52v-.12a2.17,2.17,0,0,1,1-1.77,21.32,21.32,0,0,1,2.4-1.51,22.89,22.89,0,0,0,4.67-3.54,9.56,9.56,0,0,0,2.4-6.68,10.85,10.85,0,0,0-2.15-6.5,15.13,15.13,0,0,0-5.55-4.67A15.41,15.41,0,0,0,1123.26,777Zm-.88,31.29a5.8,5.8,0,1,0,4.1,1.7A5.57,5.57,0,0,0,1122.38,808.28Z" transform="translate(-3.7 -7.65)"/></g></g><g id="Group-33"><circle id="Oval" class="cls-31" cx="95.5" cy="632.35" r="26"/><circle id="Oval-2" data-name="Oval" class="cls-32" cx="24.5" cy="274.35" r="24"/><circle id="Oval-3" data-name="Oval" class="cls-33" cx="99" cy="147.85" r="15.5"/><g id="Group" class="cls-34"><path id="Shape" class="cls-35" d="M377.39,49.9,328.85,25.16m11.51,37L365.1,13.65" transform="translate(-3.7 -7.65)"/></g><g id="Group-2" data-name="Group" class="cls-34"><path id="Shape-2" data-name="Shape" class="cls-35" d="M1325.07,571.4l11.18,41.7m15.32-26.5-41.71,11.18" transform="translate(-3.7 -7.65)"/></g><path id="Path" class="cls-36" d="M255.7,526a15.5,15.5,0,1,0-15.5-15.5A15.5,15.5,0,0,0,255.7,526Z" transform="translate(-3.7 -7.65)"/><circle id="Oval-4" data-name="Oval" class="cls-37" cx="1056.5" cy="80.35" r="26"/><circle id="Oval-5" data-name="Oval" class="cls-38" cx="1160" cy="194.85" r="15.5"/><circle id="Oval-6" data-name="Oval" class="cls-39" cx="1418.97" cy="412.35" r="24"/><g id="Group-3" data-name="Group" class="cls-34"><path id="Shape-3" data-name="Shape" class="cls-40" d="M1340.54,181.5l40.69-34.14m-37.73-4L1377.64,184" transform="translate(-3.7 -7.65)"/></g></g></g></g></svg>