<svg version="1.2" baseProfile="tiny-ps" xmlns="http://www.w3.org/2000/svg" viewBox="0 0 217 237" width="199" height="217">
	<title>profilepic-svg</title>
	<defs>
		<clipPath clipPathUnits="userSpaceOnUse" id="cp1">
			<path d="M108.8 237C49.08 237 0.8 188.72 0.8 129C0.8 69.28 49.08 21 108.8 21C168.52 21 216.8 69.28 216.8 129C216.8 188.72 168.52 237 108.8 237Z" />
		</clipPath>
		<clipPath clipPathUnits="userSpaceOnUse" id="cp2">
			<path d="M-10 129L-10 -15L227.6 -15L227.6 129L216.8 129C216.8 188.65 168.45 237 108.8 237C49.15 237 0.8 188.65 0.8 129L0.8 129L-10 129Z" />
		</clipPath>
		<clipPath clipPathUnits="userSpaceOnUse" id="cp3">
			<path d="M108.8 17.4C136.64 17.4 159.2 39.96 159.2 67.8L159.2 73.35C164.31 74.21 168.2 78.65 168.2 84L168.2 96.6C168.2 102.05 164.17 106.55 158.92 107.29C157.06 125.12 145.91 140.18 130.4 147.55L130.4 164.1L134 164.1C169.79 164.1 198.8 193.11 198.8 228.9L198.8 237L18.8 237L18.8 228.9C18.8 193.11 47.81 164.1 83.6 164.1L87.2 164.1L87.2 147.55C71.69 140.18 60.54 125.12 58.67 107.29C53.43 106.55 49.4 102.05 49.4 96.6L49.4 84C49.4 78.65 53.29 74.21 58.4 73.35L58.4 67.8C58.4 39.96 80.96 17.4 108.8 17.4Z" />
		</clipPath>
		<clipPath clipPathUnits="userSpaceOnUse" id="cp4">
			<path d="M108.8 17.4C136.64 17.4 159.2 39.96 159.2 67.8L159.2 73.35C164.31 74.21 168.2 78.65 168.2 84L168.2 96.6C168.2 102.05 164.17 106.55 158.92 107.29C157.06 125.12 145.91 140.18 130.4 147.55L130.4 164.1L134 164.1C169.79 164.1 198.8 193.11 198.8 228.9L198.8 237L18.8 237L18.8 228.9C18.8 193.11 47.81 164.1 83.6 164.1L87.2 164.1L87.2 147.55C71.69 140.18 60.54 125.12 58.67 107.29C53.43 106.55 49.4 102.05 49.4 96.6L49.4 84C49.4 78.65 53.29 74.21 58.4 73.35L58.4 67.8C58.4 39.96 80.96 17.4 108.8 17.4Z" />
		</clipPath>
		<clipPath clipPathUnits="userSpaceOnUse" id="cp5">
			<path d="M130.4 149.76C146.69 151.59 159.2 156.6 159.2 169.57L159.19 169.18C182.47 179.01 198.8 202.05 198.8 228.9L198.8 237L18.8 237L18.8 228.9C18.8 202.05 35.13 179.01 58.41 169.18C58.65 156.5 71.07 151.57 87.2 149.76L87.2 166.8C87.2 178.73 96.87 188.4 108.8 188.4C120.73 188.4 130.4 178.73 130.4 166.8L130.4 166.8L130.4 149.76Z" />
		</clipPath>
		<clipPath clipPathUnits="userSpaceOnUse" id="cp6">
			<path d="M130.4 149.76C146.69 151.59 159.2 156.6 159.2 169.57L159.19 169.18C182.47 179.01 198.8 202.05 198.8 228.9L198.8 237L18.8 237L18.8 228.9C18.8 202.05 35.13 179.01 58.41 169.18C58.65 156.5 71.07 151.57 87.2 149.76L87.2 166.8C87.2 178.73 96.87 188.4 108.8 188.4C120.73 188.4 130.4 178.73 130.4 166.8L130.4 166.8L130.4 149.76Z" />
		</clipPath>
		<clipPath clipPathUnits="userSpaceOnUse" id="cp7">
			<path d="M130.4 149.76C146.69 151.59 159.2 156.6 159.2 169.57L159.19 169.18C182.47 179.01 198.8 202.05 198.8 228.9L198.8 237L18.8 237L18.8 228.9C18.8 202.05 35.13 179.01 58.41 169.18C58.65 156.5 71.07 151.57 87.2 149.76L87.2 166.8C87.2 178.73 96.87 188.4 108.8 188.4C120.73 188.4 130.4 178.73 130.4 166.8L130.4 166.8L130.4 149.76Z" />
		</clipPath>
		<clipPath clipPathUnits="userSpaceOnUse" id="cp8">
			<path d="M91.81 119.22C92.76 127.76 100 134.4 108.8 134.4C117.62 134.4 124.89 127.72 125.8 119.14C125.88 118.45 125.11 117.3 124.14 117.3C110.73 117.3 100.46 117.3 93.58 117.3C92.61 117.3 91.71 118.36 91.81 119.22Z" />
		</clipPath>
		<clipPath clipPathUnits="userSpaceOnUse" id="cp9">
			<path d="M91.81 119.22C92.76 127.76 100 134.4 108.8 134.4C117.62 134.4 124.89 127.72 125.8 119.14C125.88 118.45 125.11 117.3 124.14 117.3C110.73 117.3 100.46 117.3 93.58 117.3C92.61 117.3 91.71 118.36 91.81 119.22Z" />
		</clipPath>
		<clipPath clipPathUnits="userSpaceOnUse" id="cp10">
			<path d="M-10 -15L227.6 -15L227.6 237L-10 237L-10 -15Z" />
		</clipPath>
		<clipPath clipPathUnits="userSpaceOnUse" id="cp11">
			<path d="M151.13 20.93C148.65 18.39 145.77 16.24 142.96 14.08C142.34 13.6 141.71 13.13 141.11 12.64C140.97 12.53 139.56 11.52 139.39 11.15C138.99 10.25 139.22 10.95 139.28 9.88C139.35 8.54 142.1 4.73 140.05 3.85C139.15 3.47 137.54 4.49 136.67 4.83C134.98 5.49 133.26 6.05 131.51 6.54C132.35 4.87 133.95 1.52 130.94 2.42C128.6 3.12 126.42 4.91 124.07 5.75C124.85 4.48 127.96 0.52 125.15 0.3C124.27 0.23 121.72 1.88 120.78 2.23C117.96 3.27 115.07 3.95 112.11 4.49C102.03 6.3 90.25 5.79 80.92 10.37C73.73 13.91 66.64 19.4 62.48 26.39C58.48 33.13 56.98 40.5 56.15 48.22C55.53 53.88 55.48 59.74 55.77 65.42C55.86 67.29 56.07 75.87 58.78 73.27C60.13 71.98 60.12 66.75 60.46 64.97C61.13 61.45 61.78 57.91 62.91 54.5C64.9 48.49 67.24 45.69 72.18 41.55C75.36 38.89 77.59 35.3 80.63 32.62C81.99 31.42 80.95 31.54 83.14 31.7C84.62 31.81 86.1 31.85 87.57 31.88C90.99 31.97 94.41 31.95 97.83 31.96C104.71 31.99 111.56 32.09 118.44 31.72C121.49 31.56 124.56 31.48 127.6 31.2C129.31 31.04 132.33 29.95 133.73 30.78C135.01 31.54 136.34 34.03 137.26 35.05C139.44 37.46 142.03 39.31 144.58 41.28C149.88 45.4 152.56 46.98 154.17 53.42C155.78 59.84 155.33 65.79 157.31 72.11C157.66 73.22 158.59 75.13 159.73 73.42C159.94 73.1 159.88 71.35 159.88 70.34C159.88 66.27 160.91 63.22 160.9 59.12C160.85 46.67 160.45 30.44 151.13 20.93Z" />
		</clipPath>
	</defs>
	<style>
		tspan { white-space:pre }
		.shp0 { fill: #c3073f } 
		.shp1 { fill: #d0c6ac } 
		.shp2 { fill: #ffdbb4 } 
		.shp3 { opacity: 0.102;fill: #000000 } 
		.shp4 { fill: #b7c1db } 
		.shp5 { fill: #293347 } 
		.shp6 { fill: #f4f4f4 } 
		.shp7 { opacity: 0.161;fill: #000000 } 
		.shp8 { fill: #000000 } 
		.shp9 { fill: #ffffff } 
		.shp10 { fill: #ff4f6d } 
		.shp11 { fill: #1f3140 } 
		.shp12 { fill: #4a312c } 
	</style>
	<g id="Website">
		<g id="mf-avatar">
			<g id="Circle">
				<g id="Clip-Path: ðŸ–-Circle-Color" clip-path="url(#cp1)">
					<g id="ðŸ–-Circle-Color">
						<path id="ðŸ–Color" class="shp0" d="M0.8 21L217.25 21L217.25 237L0.8 237L0.8 21Z" />
					</g>
				</g>
			</g>
			<g id="Mask">
			</g>
			<g id="Clip-Path: Avataaar" clip-path="url(#cp2)">
				<g id="Avataaar">
					<g id="Body">
						<path id="path-5" fill-rule="evenodd" class="shp1" d="M108.8 17.4C136.64 17.4 159.2 39.96 159.2 67.8L159.2 73.35C164.31 74.21 168.2 78.65 168.2 84L168.2 96.6C168.2 102.05 164.17 106.55 158.92 107.29C157.06 125.12 145.91 140.18 130.4 147.55L130.4 164.1L134 164.1C169.79 164.1 198.8 193.11 198.8 228.9L198.8 237L18.8 237L18.8 228.9C18.8 193.11 47.81 164.1 83.6 164.1L87.2 164.1L87.2 147.55C71.69 140.18 60.54 125.12 58.67 107.29C53.43 106.55 49.4 102.05 49.4 96.6L49.4 84C49.4 78.65 53.29 74.21 58.4 73.35L58.4 67.8C58.4 39.96 80.96 17.4 108.8 17.4Z" />
						<g id="Clip-Path: Skin/ðŸ‘¶ðŸ»-05-Pale" clip-path="url(#cp3)">
							<g id="Skin/ðŸ‘¶ðŸ»-05-Pale">
								<g id="Color">
									<path id="Layer" class="shp2" d="M-10 17.4L228.38 17.4L228.38 237.75L-10 237.75L-10 17.4Z" />
								</g>
							</g>
						</g>
						<g id="Clip-Path: Neck-Shadow" clip-path="url(#cp4)">
							<path id="Neck-Shadow" fill-rule="evenodd" class="shp3" d="M58.4 102C58.4 129.84 80.96 152.4 108.8 152.4C136.64 152.4 159.2 129.84 159.2 102L159.2 102L159.2 109.2C159.2 137.04 136.64 159.6 108.8 159.6C80.96 159.6 58.4 137.04 58.4 109.2L58.4 102Z" />
						</g>
					</g>
					<g id="Clothing/Hoodie">
						<path id="path-7" fill-rule="evenodd" class="shp4" d="M130.4 149.76C146.69 151.59 159.2 156.6 159.2 169.57L159.19 169.18C182.47 179.01 198.8 202.05 198.8 228.9L198.8 237L18.8 237L18.8 228.9C18.8 202.05 35.13 179.01 58.41 169.18C58.65 156.5 71.07 151.57 87.2 149.76L87.2 166.8C87.2 178.73 96.87 188.4 108.8 188.4C120.73 188.4 130.4 178.73 130.4 166.8L130.4 166.8L130.4 149.76Z" />
						<g id="Clip-Path: Color/Palette/Slate" clip-path="url(#cp5)">
							<g id="Color/Palette/Slate">
								<path id="ðŸ–Color" class="shp5" d="M-10 138L228.49 138L228.49 237L-10 237L-10 138Z" />
							</g>
						</g>
						<g id="Clip-Path: Straps" clip-path="url(#cp6)">
							<path id="Straps" fill-rule="evenodd" class="shp6" d="M81.8 193.57L81.8 237L75.5 237L75.5 190.33C77.48 191.51 79.59 192.59 81.8 193.57ZM142.1 190.33L142.1 226.65C142.1 228.39 140.69 229.8 138.95 229.8C137.21 229.8 135.8 228.39 135.8 226.65L135.8 193.56C138.01 192.59 140.12 191.51 142.1 190.33Z" />
						</g>
						<g id="Clip-Path: Shadow" clip-path="url(#cp7)">
							<path id="Shadow" fill-rule="evenodd" class="shp7" d="M145.73 149.45C159.28 152.01 168.65 157.12 168.65 167.08C168.65 184.82 138.92 199.2 108.8 199.2C78.68 199.2 48.95 184.82 48.95 167.08C48.95 157.12 58.32 152.01 71.87 149.45C63.69 152.47 58.4 157.53 58.4 165.97C58.4 184.32 83.44 199.2 108.8 199.2C134.16 199.2 159.2 184.32 159.2 165.97C159.2 157.71 154.13 152.68 146.24 149.64L145.73 149.45Z" />
						</g>
					</g>
					<g id="Face">
						<g id="Mouth/Smile">
							<path id="path-9" fill-rule="evenodd" class="shp8" d="M91.81 119.22C92.76 127.76 100 134.4 108.8 134.4C117.62 134.4 124.89 127.72 125.8 119.14C125.88 118.45 125.11 117.3 124.14 117.3C110.73 117.3 100.46 117.3 93.58 117.3C92.61 117.3 91.71 118.36 91.81 119.22Z" />
							<g id="Clip-Path: Teeth" clip-path="url(#cp8)">
								<path id="Teeth" fill-rule="evenodd" class="shp9" d="M99.8 107.4L118.7 107.4C121.19 107.4 123.2 109.41 123.2 111.9L123.2 117.3C123.2 119.79 121.19 121.8 118.7 121.8L99.8 121.8C97.31 121.8 95.3 119.79 95.3 117.3L95.3 111.9C95.3 109.41 97.31 107.4 99.8 107.4Z" />
							</g>
							<g id="Clip-Path: Tongue" clip-path="url(#cp9)">
								<g id="Tongue">
									<g id="Layer">
										<path id="Layer" class="shp10" d="M104.3 147C98.83 147 94.4 142.57 94.4 137.1C94.4 131.63 98.83 127.2 104.3 127.2C109.77 127.2 114.2 131.63 114.2 137.1C114.2 142.57 109.77 147 104.3 147Z" />
										<path id="Layer" class="shp10" d="M113.3 147C107.83 147 103.4 142.57 103.4 137.1C103.4 131.63 107.83 127.2 113.3 127.2C118.77 127.2 123.2 131.63 123.2 137.1C123.2 142.57 118.77 147 113.3 147Z" />
									</g>
								</g>
							</g>
						</g>
						<g id="Nose/Default" style="opacity: 0.161">
							<path id="Nose" fill-rule="evenodd" class="shp8" d="M98 102C98 105.98 102.84 109.2 108.8 109.2L108.8 109.2C114.76 109.2 119.6 105.98 119.6 102" />
						</g>
						<g id="Eyes/Happy-ðŸ˜" style="opacity: 0.6">
							<path id="Squint" fill-rule="evenodd" class="shp8" d="M72.94 86.2C74.61 82.78 78.35 80.4 82.7 80.4C87.03 80.4 90.76 82.77 92.43 86.17C92.93 87.18 92.22 88 91.51 87.39C89.31 85.49 86.17 84.31 82.7 84.31C79.33 84.31 76.29 85.42 74.09 87.21C73.29 87.87 72.46 87.2 72.94 86.2Z" />
							<path id="Squint" fill-rule="evenodd" class="shp8" d="M125.14 86.2C126.81 82.78 130.55 80.4 134.9 80.4C139.23 80.4 142.96 82.77 144.63 86.17C145.13 87.18 144.42 88 143.71 87.39C141.51 85.49 138.37 84.31 134.9 84.31C131.53 84.31 128.49 85.42 126.29 87.21C125.49 87.87 124.66 87.2 125.14 86.2Z" />
						</g>
						<g id="Eyebrow/Natural/Default-Natural" style="opacity: 0.6">
							<path id="Eyebrow" fill-rule="evenodd" class="shp8" d="M82.29 64.33C77.07 64.57 68.62 68.37 68.83 73.64C68.84 73.82 69.1 73.89 69.22 73.76C71.7 71.1 89.3 68.4 95.5 69.83C96.07 69.96 96.5 69.4 96.14 69C93.06 65.53 86.97 64.11 82.29 64.33Z" />
							<path id="Eyebrow" fill-rule="evenodd" class="shp8" d="M136.21 64.33C141.43 64.57 149.88 68.37 149.67 73.64C149.66 73.82 149.4 73.89 149.28 73.76C146.8 71.1 129.2 68.4 123 69.83C122.43 69.96 122 69.4 122.36 69C125.44 65.53 131.53 64.11 136.21 64.33Z" />
						</g>
					</g>
					<g id="Top">
						<g id="Mask">
						</g>
						<g id="Clip-Path" clip-path="url(#cp10)">
							<g id="Layer">
								<g id="Layer">
									<path id="path-13" fill-rule="evenodd" class="shp11" d="M151.13 20.93C148.65 18.39 145.77 16.24 142.96 14.08C142.34 13.6 141.71 13.13 141.11 12.64C140.97 12.53 139.56 11.52 139.39 11.15C138.99 10.25 139.22 10.95 139.28 9.88C139.35 8.54 142.1 4.73 140.05 3.85C139.15 3.47 137.54 4.49 136.67 4.83C134.98 5.49 133.26 6.05 131.51 6.54C132.35 4.87 133.95 1.52 130.94 2.42C128.6 3.12 126.42 4.91 124.07 5.75C124.85 4.48 127.96 0.52 125.15 0.3C124.27 0.23 121.72 1.88 120.78 2.23C117.96 3.27 115.07 3.95 112.11 4.49C102.03 6.3 90.25 5.79 80.92 10.37C73.73 13.91 66.64 19.4 62.48 26.39C58.48 33.13 56.98 40.5 56.15 48.22C55.53 53.88 55.48 59.74 55.77 65.42C55.86 67.29 56.07 75.87 58.78 73.27C60.13 71.98 60.12 66.75 60.46 64.97C61.13 61.45 61.78 57.91 62.91 54.5C64.9 48.49 67.24 45.69 72.18 41.55C75.36 38.89 77.59 35.3 80.63 32.62C81.99 31.42 80.95 31.54 83.14 31.7C84.62 31.81 86.1 31.85 87.57 31.88C90.99 31.97 94.41 31.95 97.83 31.96C104.71 31.99 111.56 32.09 118.44 31.72C121.49 31.56 124.56 31.48 127.6 31.2C129.31 31.04 132.33 29.95 133.73 30.78C135.01 31.54 136.34 34.03 137.26 35.05C139.44 37.46 142.03 39.31 144.58 41.28C149.88 45.4 152.56 46.98 154.17 53.42C155.78 59.84 155.33 65.79 157.31 72.11C157.66 73.22 158.59 75.13 159.73 73.42C159.94 73.1 159.88 71.35 159.88 70.34C159.88 66.27 160.91 63.22 160.9 59.12C160.85 46.67 160.45 30.44 151.13 20.93Z" />
									<g id="Clip-Path: Color/Hair/Brown-Dark" clip-path="url(#cp11)">
										<g id="Color/Hair/Brown-Dark">
											<g id="Color">
												<path id="Layer" class="shp12" d="M-10.1 -15L229.01 -15L229.01 237.41L-10.1 237.41L-10.1 -15Z" />
											</g>
										</g>
									</g>
								</g>
							</g>
						</g>
					</g>
				</g>
			</g>
		</g>
	</g>
</svg>